<?xml version="1.0" standalone="no"?>
<!DOCTYPE svg PUBLIC "-//W3C//DTD SVG 20010904//EN"
 "http://www.w3.org/TR/2001/REC-SVG-20010904/DTD/svg10.dtd">
<svg version="1.0" xmlns="http://www.w3.org/2000/svg"
 width="480.000000pt" height="480.000000pt" viewBox="0 0 480.000000 480.000000"
 preserveAspectRatio="xMidYMid meet">
<metadata>
Created by potrace 1.14, written by Peter Selinger 2001-2017
</metadata>
<g transform="translate(0.000000,480.000000) scale(0.100000,-0.100000)"
fill="#000000" stroke="none">
<path d="M275 4490 c-4 -6 -5 -13 -2 -16 4 -4 103 -24 191 -40 17 -2 47 -9 66
-14 19 -5 51 -12 70 -15 57 -10 343 -83 515 -131 418 -118 855 -265 1250 -421
83 -32 165 -72 121 -58 -39 12 -316 52 -481 69 -187 20 -201 21 -390 33 -166
10 -836 10 -980 0 -131 -9 -260 -23 -370 -39 -44 -7 -83 -11 -87 -10 -5 1 -8
-6 -8 -17 0 -15 6 -18 33 -16 181 17 556 22 763 11 117 -7 254 -16 294 -21 19
-2 64 -7 100 -10 36 -3 103 -11 150 -16 47 -6 103 -12 125 -14 39 -4 91 -12
150 -22 17 -2 39 -6 50 -8 60 -8 121 -19 215 -37 58 -11 114 -21 125 -23 11
-2 31 -5 45 -8 41 -9 245 -59 248 -62 2 -1 -77 -2 -175 -2 -211 0 -439 -18
-598 -47 -11 -2 -42 -7 -70 -11 -27 -5 -52 -9 -55 -10 -3 -1 -25 -5 -50 -9
-25 -5 -70 -14 -100 -22 -30 -7 -66 -15 -80 -18 -115 -23 -386 -107 -540 -168
-83 -33 -250 -114 -264 -128 -27 -27 33 -14 117 24 106 50 486 151 637 170 16
2 98 15 140 22 286 47 797 51 1020 9 14 -3 39 -7 55 -10 54 -8 177 -43 186
-52 7 -7 61 -178 56 -178 -1 0 -27 -13 -57 -29 -373 -196 -502 -605 -293 -930
117 -182 288 -295 658 -435 105 -40 199 -76 210 -81 11 -5 71 -29 132 -54 207
-84 303 -144 423 -265 96 -98 185 -225 240 -345 42 -92 103 -271 121 -361 7
-33 13 -64 15 -70 5 -26 13 -86 20 -145 4 -36 8 -72 10 -80 1 -8 3 -30 3 -47
1 -26 5 -33 22 -33 19 0 20 4 15 129 -3 71 -8 144 -10 163 -3 18 -10 69 -16
113 -26 180 -97 400 -176 542 -42 75 -133 200 -187 256 -21 21 -37 40 -37 42
0 8 147 -57 238 -105 185 -98 332 -224 411 -354 35 -58 86 -195 95 -256 3 -19
8 -65 12 -102 5 -57 9 -66 22 -59 39 22 -2 278 -65 412 -74 155 -182 273 -368
398 -183 122 -361 203 -840 381 -115 43 -245 94 -289 114 -366 168 -566 426
-511 661 39 168 162 295 327 338 54 14 212 17 253 4 11 -3 31 -8 45 -11 302
-55 657 -259 784 -450 14 -21 26 -47 26 -58 0 -26 28 -78 54 -100 11 -10 64
-41 117 -68 129 -65 163 -100 193 -192 8 -25 18 -22 40 11 23 34 74 61 116 61
17 0 30 4 30 8 0 4 -33 42 -74 84 -79 82 -100 116 -160 253 -116 263 -297 484
-525 637 -112 75 -254 147 -308 155 -54 9 -38 -12 32 -42 113 -48 271 -160
385 -275 101 -101 163 -181 229 -301 32 -58 41 -88 16 -55 -8 11 -32 40 -52
64 -21 25 -55 67 -75 94 -38 50 -50 51 -43 2 5 -26 -3 -20 -70 51 -41 44 -75
83 -75 88 0 4 -4 7 -8 7 -4 0 -6 -16 -4 -35 4 -31 -10 -50 -20 -27 -4 10 -122
102 -131 102 -4 0 -2 -11 2 -24 9 -22 6 -22 -89 20 -55 23 -177 73 -272 109
-95 37 -195 82 -223 101 -143 95 -262 262 -299 424 -12 51 -15 198 -4 239 7
29 -472 195 -937 326 -136 38 -568 151 -615 160 -8 2 -80 17 -160 35 -140 30
-352 72 -435 84 -22 4 -69 11 -105 17 -36 5 -76 12 -90 14 -94 14 -138 16
-145 5z"/>
</g>
</svg>
